<?xml version="1.0" standalone="no"?>
<!DOCTYPE svg PUBLIC "-//W3C//DTD SVG 20010904//EN"
 "http://www.w3.org/TR/2001/REC-SVG-20010904/DTD/svg10.dtd">
<svg version="1.0" xmlns="http://www.w3.org/2000/svg"
 width="514.000000pt" height="460.000000pt" viewBox="0 0 514.000000 460.000000"
 preserveAspectRatio="xMidYMid meet">

<g transform="translate(0.000000,460.000000) scale(0.100000,-0.100000)"
fill="#000000" stroke="none">
<path d="M1592 3811 c-20 -12 -142 -325 -226 -580 -166 -502 -289 -1014 -455
-1896 -49 -259 -73 -414 -68 -429 6 -16 164 -70 252 -86 82 -15 263 -27 277
-19 8 5 6 23 -6 63 -17 52 -17 58 -2 81 21 32 72 45 178 45 148 0 295 -37 318
-80 9 -17 7 -29 -14 -67 -32 -56 -32 -71 -3 -82 32 -12 177 -29 322 -37 106
-6 122 -5 135 10 12 15 12 24 -3 62 -11 31 -13 52 -7 68 16 42 60 51 247 51
159 0 174 -2 200 -21 34 -25 41 -69 19 -113 -14 -27 -14 -31 0 -45 18 -19 54
-20 230 -6 149 12 234 26 248 40 7 7 2 27 -18 61 -23 42 -26 55 -18 75 24 52
130 79 312 79 117 0 139 -3 163 -19 30 -20 32 -37 12 -133 -8 -37 -12 -35 80
-33 146 3 438 70 451 104 8 21 -152 884 -226 1216 -101 456 -203 830 -320
1174 -83 243 -181 491 -202 512 -10 10 -33 8 -108 -6 -316 -61 -745 -90 -1055
-71 -245 15 -623 63 -687 86 -7 3 -19 1 -26 -4z m190 -80 c317 -54 853 -74
1163 -43 126 13 417 55 467 67 29 7 29 6 130 -260 191 -502 362 -1163 522
-2015 97 -518 101 -541 85 -551 -38 -24 -209 -61 -333 -73 l-69 -7 7 32 c4 22
-15 145 -58 368 -36 185 -95 491 -131 681 -163 852 -180 932 -193 938 -7 2
-18 0 -24 -6 -13 -13 -11 -27 77 -487 185 -962 255 -1331 255 -1345 0 -6 -9
-6 -26 0 -64 25 -362 3 -424 -30 -37 -20 -26 -105 -110 880 -56 655 -60 694
-69 703 -17 17 -41 -1 -41 -30 0 -15 11 -154 25 -308 13 -154 31 -359 39 -455
9 -96 27 -310 42 -475 14 -165 26 -336 26 -380 0 -44 4 -87 9 -97 12 -21 2
-24 -131 -38 -58 -6 -125 -13 -150 -15 l-45 -5 -1 92 c0 51 -4 145 -7 208 -44
722 -75 1236 -83 1385 -14 265 -16 280 -43 283 l-24 4 7 -149 c4 -81 9 -175
12 -208 2 -33 11 -186 19 -340 8 -154 17 -309 20 -345 2 -36 7 -112 10 -170 3
-58 12 -211 20 -340 8 -129 15 -240 15 -247 0 -8 -13 -7 -47 3 -67 21 -320 20
-387 0 l-49 -15 7 102 c3 56 15 253 26 437 11 184 30 496 42 692 23 367 22
389 -15 375 -17 -7 -19 -28 -57 -687 -11 -190 -22 -372 -25 -405 -15 -186 -36
-605 -31 -638 l6 -38 -47 6 c-27 2 -100 10 -163 16 -63 6 -119 14 -123 18 -4
5 -3 19 2 32 6 13 24 197 41 409 17 212 33 408 35 435 3 28 14 156 24 285 64
770 66 810 44 810 -29 -1 -34 -38 -83 -630 -27 -338 -57 -694 -65 -790 -7 -96
-17 -215 -20 -265 -10 -133 -3 -126 -88 -96 -66 23 -86 25 -248 26 l-175 0 27
160 c38 224 173 1001 214 1236 19 108 35 204 35 213 0 20 -27 33 -41 19 -6 -6
-39 -176 -74 -379 -34 -203 -102 -594 -150 -869 -50 -291 -84 -514 -81 -533
l5 -32 -67 6 c-147 13 -330 57 -339 82 -7 16 6 91 84 507 179 955 363 1652
581 2190 52 129 51 127 77 121 14 -4 75 -15 137 -25z"/>
</g>
</svg>
