<?xml version="1.0" standalone="no"?>
<!DOCTYPE svg PUBLIC "-//W3C//DTD SVG 20010904//EN"
 "http://www.w3.org/TR/2001/REC-SVG-20010904/DTD/svg10.dtd">
<svg version="1.0" xmlns="http://www.w3.org/2000/svg"
 width="300.000000pt" height="350.000000pt" viewBox="0 0 194.000000 300.000000"
 preserveAspectRatio="xMidYMid meet">
<metadata>
Created by potrace 1.10, written by Peter Selinger 2001-2011
</metadata>
<g transform="translate(0.000000,300.000000) scale(0.100000,-0.100000)"
fill="#000000" stroke="none">
<path d="M762 2579 c-25 -7 -32 -14 -28 -26 21 -55 28 -114 23 -195 -6 -91 11
-175 49 -249 11 -23 11 -29 -1 -39 -21 -18 -61 -106 -79 -175 -14 -55 -41
-347 -66 -720 -6 -82 -13 -181 -16 -220 -17 -208 -30 -501 -23 -509 5 -5 33
-11 64 -14 30 -2 55 -8 55 -12 0 -14 52 -30 97 -30 30 0 53 -6 66 -18 16 -14
38 -17 122 -17 84 0 106 3 122 17 13 12 36 18 70 18 35 0 58 6 76 20 15 12 40
20 64 20 22 0 48 6 58 14 18 13 18 22 -4 362 -12 192 -24 372 -27 399 -2 28
-15 188 -29 356 -26 329 -37 387 -95 482 l-29 47 19 46 c34 79 51 159 40 189
-14 37 -12 85 6 167 9 38 12 74 8 78 -5 5 -25 11 -44 15 -35 6 -35 5 -133
-120 -54 -69 -101 -125 -105 -125 -8 1 -185 223 -190 240 -4 12 -25 12 -70 -1z
m116 -111 c39 -51 88 -113 109 -137 l38 -43 98 122 c54 68 101 129 106 138 5
9 16 12 28 8 19 -6 19 -9 6 -69 -15 -75 -16 -121 -3 -166 8 -28 4 -50 -22
-128 l-31 -93 -182 0 c-165 0 -184 2 -190 18 -44 108 -53 150 -47 240 3 55 0
109 -7 138 -10 38 -10 49 1 55 7 5 16 9 19 9 3 0 38 -42 77 -92z m363 -454
c48 -84 66 -185 89 -489 11 -154 22 -305 25 -335 6 -73 13 -183 20 -305 3 -55
8 -120 10 -145 2 -25 7 -98 11 -163 l6 -117 -49 0 -50 0 -1 43 c-6 148 -71
1028 -77 1037 -4 7 -11 8 -16 3 -4 -4 9 -255 31 -558 21 -302 35 -553 31 -556
-3 -4 -29 -9 -57 -12 l-51 -6 -7 122 c-3 67 -9 221 -12 342 -14 490 -18 558
-33 563 -12 4 -13 -34 -7 -249 3 -140 8 -294 11 -344 3 -49 7 -172 10 -271 l6
-181 -23 -7 c-31 -8 -149 -6 -172 3 -22 9 -22 -45 -1 591 8 234 15 433 15 443
0 9 -6 17 -14 17 -16 0 -20 -76 -37 -645 -7 -209 -12 -381 -13 -382 -1 -1 -26
2 -56 5 l-55 7 0 55 c0 68 14 316 20 350 2 14 7 72 10 130 4 58 14 210 23 338
10 129 14 238 11 244 -16 25 -26 -9 -32 -104 -16 -252 -57 -859 -63 -915 l-6
-63 -45 0 -46 0 7 147 c12 274 68 1035 86 1189 12 94 40 183 76 237 l25 37
186 -2 186 -3 28 -51z"/>
</g>
</svg>
