<?xml version="1.0" standalone="no"?>
<!DOCTYPE svg PUBLIC "-//W3C//DTD SVG 20010904//EN"
 "http://www.w3.org/TR/2001/REC-SVG-20010904/DTD/svg10.dtd">
<svg version="1.0" xmlns="http://www.w3.org/2000/svg"
 width="185.000000pt" height="300.000000pt" viewBox="0 0 185.000000 300.000000"
 preserveAspectRatio="xMidYMid meet">
<metadata>
Created by potrace 1.10, written by Peter Selinger 2001-2011
</metadata>
<g transform="translate(0.000000,300.000000) scale(0.100000,-0.100000)"
fill="#000000" stroke="none">
<path d="M695 2679 c-74 -163 -78 -224 -79 -1264 l-1 -900 30 -15 c35 -17 257
-22 274 -5 9 9 13 113 26 705 3 135 8 277 10 315 2 39 7 115 10 170 14 231 42
475 56 475 5 0 9 -5 9 -11 0 -6 7 -65 15 -132 20 -173 34 -363 40 -582 3 -104
8 -215 10 -245 3 -30 5 -193 6 -362 1 -234 5 -312 14 -325 12 -15 30 -18 132
-18 85 0 126 4 148 15 l30 15 3 545 c1 300 -2 732 -7 960 -11 454 -21 537 -76
654 -27 58 -28 58 -64 52 -191 -35 -344 -35 -524 -1 l-37 7 -25 -53z m135 2
c11 -4 14 -14 10 -31 l-5 -25 -62 13 c-61 13 -62 14 -51 38 11 23 16 24 52 18
23 -3 48 -9 56 -13z m484 -5 l15 -24 -50 -11 c-61 -13 -79 -14 -79 -2 0 5 -3
16 -6 24 -4 12 5 18 38 25 63 14 64 14 82 -12z m-353 -6 c44 0 46 -1 46 -30 0
-33 -11 -36 -99 -24 -42 6 -44 7 -40 36 4 25 8 29 26 24 11 -3 42 -6 67 -6z
m209 -19 c0 -25 -4 -29 -37 -35 -21 -3 -53 -6 -70 -6 -30 0 -33 3 -33 30 0 28
1 29 58 33 31 2 63 4 70 5 7 1 12 -9 12 -27z m-398 -41 c53 -10 57 -13 48 -31
-15 -27 -63 -49 -109 -49 l-39 0 16 50 c8 27 18 47 21 46 3 -2 32 -9 63 -16z
m583 -49 l7 -34 -51 5 c-48 5 -101 36 -101 59 0 4 28 13 63 21 69 15 67 16 82
-51z m-355 -190 c-3 -113 -8 -211 -12 -217 -21 -31 -54 -428 -63 -739 -3 -110
-8 -216 -10 -235 -2 -19 -5 -175 -5 -347 l-2 -312 -34 -7 c-43 -8 -205 -1
-222 10 -11 6 -13 164 -11 814 3 771 9 1062 24 1131 6 28 10 31 46 31 57 0
106 24 129 62 l20 34 72 -9 73 -10 -5 -206z m199 194 c24 -41 72 -65 130 -65
36 0 39 -2 45 -32 23 -121 37 -1930 15 -1944 -17 -10 -181 -18 -222 -10 l-36
7 -1 227 c-2 479 -23 969 -56 1259 -8 73 -21 151 -29 174 -8 23 -15 68 -15
100 0 58 1 59 35 73 45 19 55 47 55 151 0 84 0 84 28 88 15 2 28 5 29 6 0 0
10 -15 22 -34z m-109 -65 c0 -77 -3 -93 -20 -110 -11 -11 -24 -20 -30 -20 -6
0 -10 41 -10 104 0 113 -4 104 53 115 4 0 7 -39 7 -89z"/>
<path d="M1052 2644 c4 -21 22 -23 26 -1 2 10 -3 17 -13 17 -10 0 -15 -6 -13
-16z"/>
</g>
</svg>
