<?xml version="1.0" standalone="no"?>
<!DOCTYPE svg PUBLIC "-//W3C//DTD SVG 20010904//EN"
 "http://www.w3.org/TR/2001/REC-SVG-20010904/DTD/svg10.dtd">
<svg version="1.0" xmlns="http://www.w3.org/2000/svg"
 width="192.000000pt" height="300.000000pt" viewBox="0 0 192.000000 300.000000"
 preserveAspectRatio="xMidYMid meet">
<metadata>
Created by potrace 1.10, written by Peter Selinger 2001-2011
</metadata>
<g transform="translate(0.000000,300.000000) scale(0.100000,-0.100000)"
fill="#000000" stroke="none">
<path d="M722 2726 c-16 -19 -60 -158 -79 -247 -14 -67 -18 -126 -17 -294 1
-222 15 -339 69 -574 38 -169 47 -263 44 -461 -5 -356 -2 -446 16 -629 l19
-184 32 -13 c43 -18 115 -18 157 0 l33 13 18 181 c13 131 17 241 15 404 -4
273 15 732 35 888 9 63 16 124 16 134 0 33 13 8 17 -32 2 -20 8 -73 14 -117 5
-44 14 -197 19 -340 5 -143 14 -293 19 -332 5 -42 5 -104 0 -145 -13 -112 -11
-260 6 -424 23 -230 21 -221 62 -235 43 -14 150 -6 169 13 7 7 21 76 31 158
15 119 17 204 15 470 -3 352 5 473 44 637 47 202 66 342 71 538 6 214 -7 329
-53 476 -34 109 -48 133 -74 119 -33 -18 -160 -40 -264 -46 -119 -8 -278 8
-364 35 -45 14 -64 16 -70 7z m78 -50 c153 -46 450 -42 610 9 15 5 22 -5 35
-45 9 -28 15 -53 14 -55 -2 -1 -53 -16 -114 -31 -99 -26 -125 -29 -265 -28
-134 1 -169 5 -254 27 -55 15 -103 30 -108 35 -7 7 22 102 32 102 3 0 25 -6
50 -14z m5 -156 c193 -52 439 -46 618 15 27 9 50 15 52 13 1 -2 10 -48 19
-102 11 -64 17 -154 17 -255 -1 -202 -17 -335 -71 -578 -43 -193 -53 -328 -45
-610 6 -196 4 -276 -10 -425 -10 -101 -22 -193 -26 -205 -8 -20 -15 -23 -66
-23 -32 0 -63 4 -69 8 -21 15 -39 246 -40 532 -2 624 -41 1130 -90 1171 -9 7
-15 5 -22 -8 -47 -90 -88 -655 -83 -1138 3 -253 -19 -542 -43 -557 -15 -10
-108 -10 -123 0 -8 5 -20 84 -34 217 -17 174 -19 239 -13 380 14 313 5 437
-51 700 -18 88 -39 201 -47 250 -17 119 -17 470 0 550 21 94 22 97 40 90 10
-3 49 -15 87 -25z"/>
</g>
</svg>
