<?xml version="1.0" standalone="no"?>
<!DOCTYPE svg PUBLIC "-//W3C//DTD SVG 20010904//EN"
 "http://www.w3.org/TR/2001/REC-SVG-20010904/DTD/svg10.dtd">
<svg version="1.0" xmlns="http://www.w3.org/2000/svg"
 width="200.000000pt" height="200.000000pt" viewBox="0 0 472.000000 402.000000"
 preserveAspectRatio="xMidYMid meet">
<metadata>
Created by potrace 1.16, written by Peter Selinger 2001-2019
</metadata>
<g transform="translate(0.000000,402.000000) scale(0.100000,-0.100000)"
fill="#000000" stroke="none">
<path d="M1177 3118 c-18 -14 -88 -161 -147 -308 -120 -301 -210 -711 -264
-1201 -36 -335 -37 -346 -23 -356 6 -5 89 -22 182 -37 319 -52 801 -162 1060
-242 155 -47 162 -49 181 -33 9 7 33 47 54 88 21 42 45 85 53 96 14 18 15 18
36 -15 12 -19 35 -63 52 -98 44 -90 49 -91 210 -42 267 82 695 181 1016 235
114 20 218 38 231 41 23 5 23 7 17 82 -40 467 -118 934 -206 1227 -71 238
-209 557 -247 569 -12 4 -50 -2 -86 -13 -189 -58 -718 -122 -1011 -122 -293 0
-869 71 -1027 127 -50 17 -60 17 -81 2z m84 -53 c36 -13 204 -46 358 -71 l33
-5 -6 -57 c-7 -59 -24 -153 -32 -184 -3 -11 -15 -18 -29 -18 -34 0 -479 90
-487 98 -8 8 101 252 112 252 4 0 27 -7 51 -15z m2164 -110 c30 -66 51 -123
47 -127 -9 -9 -451 -98 -486 -98 -20 0 -25 7 -34 43 -13 52 -35 208 -29 213 2
2 71 15 153 29 82 14 178 34 214 44 36 11 69 19 73 17 5 -1 33 -55 62 -121z
m-1435 -1 c85 -7 181 -14 213 -14 l57 0 0 -142 0 -141 -137 6 c-112 6 -450 44
-461 52 -1 1 5 47 14 101 8 54 18 114 21 133 l4 34 67 -7 c37 -4 137 -14 222
-22z m884 4 c3 -13 10 -61 16 -108 6 -47 13 -97 16 -111 l6 -26 -129 -17
c-198 -25 -311 -36 -395 -36 l-78 0 0 139 0 138 128 8 c70 4 181 13 247 20
182 19 184 19 189 -7z m-1638 -212 c88 -18 203 -42 257 -52 90 -16 97 -19 91
-38 -17 -57 -63 -132 -107 -177 -90 -92 -172 -118 -390 -122 l-148 -2 7 30
c20 95 118 395 128 395 2 0 75 -15 162 -34z m2292 -36 c27 -76 102 -328 102
-344 0 -11 -158 -12 -286 -2 -144 12 -263 95 -331 232 -20 41 -34 76 -32 78 2
2 67 16 144 30 77 14 187 37 245 50 58 13 112 23 120 22 9 -1 25 -28 38 -66z
m-1723 -65 c66 -8 195 -21 288 -27 l167 -12 0 -698 0 -698 -61 -115 c-33 -63
-64 -115 -67 -115 -4 0 -47 14 -96 30 -199 67 -706 185 -1051 245 -82 14 -163
28 -178 31 -27 6 -28 7 -23 57 42 387 85 692 129 902 l13 60 174 6 c140 5 188
10 241 27 119 39 198 112 262 244 35 72 45 86 62 82 11 -2 74 -11 140 -19z
m1155 -51 c36 -81 108 -170 171 -210 84 -52 152 -67 339 -73 l175 -6 27 -135
c45 -228 129 -863 115 -876 -2 -2 -91 -19 -198 -38 -373 -67 -881 -186 -1068
-250 -41 -14 -78 -26 -82 -26 -4 0 -35 52 -68 115 l-61 115 0 249 0 248 60 6
c152 16 240 103 259 254 5 37 9 201 9 363 1 217 4 296 12 298 7 3 69 12 139
22 69 10 129 18 132 19 3 0 20 -33 39 -75z m-373 -315 c-4 -371 -6 -388 -68
-450 -36 -36 -93 -61 -171 -74 l-38 -6 0 429 0 429 133 9 c72 5 136 6 140 3 5
-3 7 -156 4 -340z"/>
<path d="M2386 2859 c-36 -28 -33 -83 6 -112 73 -54 153 56 82 112 -34 27 -54
26 -88 0z"/>
</g>
</svg>
