<?xml version="1.0" standalone="no"?>
<!DOCTYPE svg PUBLIC "-//W3C//DTD SVG 20010904//EN"
 "http://www.w3.org/TR/2001/REC-SVG-20010904/DTD/svg10.dtd">
<svg version="1.0" xmlns="http://www.w3.org/2000/svg"
 width="171.000000pt" height="300.000000pt" viewBox="0 0 171.000000 300.000000"
 preserveAspectRatio="xMidYMid meet">
<metadata>
Created by potrace 1.10, written by Peter Selinger 2001-2011
</metadata>
<g transform="translate(0.000000,300.000000) scale(0.100000,-0.100000)"
fill="#000000" stroke="none">
<path d="M385 2703 c-38 -8 -73 -18 -78 -22 -4 -4 -1 -29 8 -57 24 -82 45
-222 45 -303 0 -143 -42 -243 -117 -279 -41 -19 -41 -21 13 -201 110 -367 120
-516 48 -679 -35 -80 -124 -320 -124 -335 0 -7 24 -23 53 -35 84 -35 199 -115
261 -182 70 -76 120 -149 187 -274 57 -108 88 -136 152 -136 73 0 102 23 156
125 128 244 242 364 426 452 41 19 77 38 79 42 6 9 -21 88 -92 267 -114 285
-110 344 64 916 3 11 -7 23 -35 38 -83 47 -111 120 -111 288 0 79 7 148 21
212 11 52 22 107 25 121 6 25 4 26 -77 42 -46 10 -86 14 -90 10 -4 -5 -22 -62
-39 -128 -70 -261 -121 -372 -193 -422 -32 -22 -54 -28 -109 -31 -160 -9 -228
63 -306 323 -28 95 -36 126 -62 223 -6 23 -16 42 -23 41 -7 -1 -43 -8 -82 -16z
m85 -98 c7 -32 28 -109 47 -169 82 -257 147 -333 295 -344 99 -7 152 11 214
72 60 61 97 143 150 333 49 176 50 178 65 174 8 -2 31 -6 52 -8 30 -5 37 -9
32 -22 -13 -32 -36 -153 -44 -237 -11 -105 1 -218 29 -281 23 -51 76 -113 97
-113 19 0 17 -16 -23 -152 -85 -287 -86 -289 -91 -419 -7 -155 0 -186 81 -392
88 -221 87 -208 30 -231 -168 -69 -317 -225 -447 -466 -46 -87 -71 -110 -119
-110 -50 0 -72 19 -113 98 -87 169 -203 315 -320 401 -46 33 -156 91 -175 91
-8 0 -10 7 -5 18 4 9 22 58 40 107 18 50 49 128 68 175 89 216 77 350 -78 851
-4 11 7 25 32 41 48 31 87 103 104 186 15 81 6 236 -21 356 -11 49 -19 90 -17
91 9 7 93 20 98 16 3 -3 12 -33 19 -66z"/>
</g>
</svg>
