<?xml version="1.0" standalone="no"?>
<!DOCTYPE svg PUBLIC "-//W3C//DTD SVG 20010904//EN"
 "http://www.w3.org/TR/2001/REC-SVG-20010904/DTD/svg10.dtd">
<svg version="1.0" xmlns="http://www.w3.org/2000/svg"
 width="300.000000pt" height="309.000000pt" viewBox="0 0 300.000000 309.000000"
 preserveAspectRatio="xMidYMid meet">
<metadata>
Created by potrace 1.10, written by Peter Selinger 2001-2011
</metadata>
<g transform="translate(0.000000,309.000000) scale(0.100000,-0.100000)"
fill="#000000" stroke="none">
<path d="M940 2704 c-52 -14 -119 -31 -147 -40 l-53 -14 -185 -261 c-102 -143
-185 -264 -185 -268 0 -11 376 -321 389 -321 5 0 21 19 36 43 l26 42 -6 -135
c-16 -381 -70 -1035 -100 -1202 -3 -19 1 -30 13 -37 9 -5 141 -17 292 -26 299
-19 704 -17 1005 5 166 12 208 21 200 42 -26 77 -116 1208 -104 1313 l4 30 23
-37 c13 -21 28 -38 33 -38 16 0 384 311 383 323 -1 10 -339 494 -364 521 -8 8
-222 67 -291 80 -31 5 -42 2 -75 -25 -49 -40 -162 -92 -234 -110 -161 -38
-348 3 -491 107 -26 19 -53 34 -60 33 -8 0 -57 -12 -109 -25z m153 -47 c-3 -4
-6 -7 -7 -5 -1 2 -8 12 -16 22 -14 18 -14 18 7 6 12 -8 19 -18 16 -23z m-25
-40 c60 -122 173 -202 326 -233 68 -14 82 -14 153 0 150 31 256 107 314 223
19 38 35 70 36 72 1 2 61 -12 133 -30 121 -30 131 -34 126 -53 -12 -42 -56
-335 -67 -445 -15 -144 -7 -613 15 -881 19 -226 64 -674 72 -708 2 -13 1 -22
-3 -19 -4 2 -53 1 -108 -4 -353 -28 -727 -32 -1055 -9 -113 7 -215 14 -227 14
-13 0 -23 1 -23 2 0 1 9 78 19 171 46 395 77 835 80 1124 2 210 -13 376 -55
628 -13 79 -23 146 -21 147 3 3 229 62 243 63 6 1 25 -28 42 -62z m792 53 c0
-5 -5 -10 -11 -10 -5 0 -7 5 -4 10 3 6 8 10 11 10 2 0 4 -4 4 -10z m-659 -80
c183 -85 416 -76 582 24 31 19 57 31 57 27 0 -4 -21 -33 -47 -65 -170 -208
-487 -205 -653 5 -41 52 -54 85 -22 56 9 -9 47 -30 83 -47z m-433 -167 c20
-135 29 -215 47 -402 5 -60 4 -66 -27 -112 -18 -27 -36 -47 -40 -46 -4 1 -79
61 -166 132 l-159 130 56 80 c208 297 257 364 261 365 3 0 15 -66 28 -147z
m1445 134 c2 -7 70 -105 151 -218 80 -114 146 -209 146 -211 0 -8 -310 -263
-320 -263 -5 0 -23 20 -41 45 l-33 45 17 175 c19 198 56 440 67 440 4 0 10 -6
13 -13z"/>
</g>
</svg>
