<?xml version="1.0" standalone="no"?>
<!DOCTYPE svg PUBLIC "-//W3C//DTD SVG 20010904//EN"
 "http://www.w3.org/TR/2001/REC-SVG-20010904/DTD/svg10.dtd">
<svg version="1.0" xmlns="http://www.w3.org/2000/svg"
 width="300.000000pt" height="341.000000pt" viewBox="0 0 300.000000 341.000000"
 preserveAspectRatio="xMidYMid meet">
<metadata>
Created by potrace 1.10, written by Peter Selinger 2001-2011
</metadata>
<g transform="translate(0.000000,341.000000) scale(0.100000,-0.100000)"
fill="#000000" stroke="none">
<path d="M986 2961 c-3 -4 5 -111 19 -236 l24 -227 -23 -58 c-42 -104 -119
-201 -203 -260 -20 -14 -22 -27 -32 -270 -7 -140 -14 -271 -16 -290 -2 -19 -7
-84 -10 -145 -3 -60 -15 -220 -26 -355 -25 -331 -30 -385 -38 -458 -5 -41 -4
-65 3 -71 10 -8 144 -19 486 -41 124 -8 679 -5 760 4 19 3 114 10 210 17 96 6
180 15 186 20 7 5 8 32 3 77 -7 67 -29 336 -49 602 -18 235 -39 580 -45 740
-6 144 -8 156 -28 170 -79 54 -162 162 -204 265 l-21 50 24 229 c13 126 21
233 18 237 -8 14 -34 11 -34 -3 0 -7 -11 -113 -23 -235 -22 -211 -25 -224 -53
-264 -66 -98 -201 -199 -341 -257 -65 -28 -70 -27 -146 4 -101 42 -200 109
-269 182 -70 74 -98 123 -98 171 0 18 -7 94 -15 169 -8 75 -18 161 -21 190 -4
34 -10 52 -19 52 -8 0 -16 -4 -19 -9z m195 -653 c77 -64 160 -113 246 -144
l74 -27 57 18 c72 22 120 46 205 103 65 43 187 162 187 182 0 24 18 7 24 -21
13 -65 112 -199 187 -255 l27 -19 11 -225 c7 -124 16 -288 21 -365 6 -77 13
-178 16 -225 10 -163 55 -685 59 -697 3 -8 -4 -13 -15 -13 -18 0 -213 -15
-330 -25 -151 -13 -591 -16 -760 -6 -102 6 -228 14 -280 17 -52 3 -104 7 -115
9 -11 2 -34 4 -51 4 l-31 1 8 57 c17 128 78 983 95 1328 l6 140 44 34 c55 42
126 135 161 211 l26 58 37 -47 c21 -26 62 -68 91 -93z"/>
</g>
</svg>
